<svg xmlns="http://www.w3.org/2000/svg" viewBox="0 0 32 32" width="32" height="32">
  <defs>
    <!-- 深色背景 -->
    <linearGradient id="bg" x1="0%" y1="0%" x2="100%" y2="100%">
      <stop offset="0%" style="stop-color:#1a1a1a"/>
      <stop offset="100%" style="stop-color:#2d2d2d"/>
    </linearGradient>
    
    <!-- ChatGPT风格的绿色 -->
    <linearGradient id="icon" x1="0%" y1="0%" x2="100%" y2="100%">
      <stop offset="0%" style="stop-color:#10a37f"/>
      <stop offset="100%" style="stop-color:#1a7f64"/>
    </linearGradient>
    
    <linearGradient id="accent" x1="0%" y1="0%" x2="100%" y2="100%">
      <stop offset="0%" style="stop-color:#19c37d"/>
      <stop offset="100%" style="stop-color:#10a37f"/>
    </linearGradient>
  </defs>
  
  <!-- 圆角背景 -->
  <rect width="32" height="32" rx="7" fill="url(#bg)"/>
  
  <!-- 主聊天气泡 -->
  <path d="M6 10 C6 8, 7 7, 9 7 L23 7 C25 7, 26 8, 26 10 L26 16 C26 18, 25 19, 23 19 L13 19 L9 22 L9 19 C7 19, 6 18, 6 16 Z" 
        fill="url(#icon)"/>
  
  <!-- 对话点 -->
  <circle cx="12" cy="13" r="1" fill="white" opacity="0.9"/>
  <circle cx="16" cy="13" r="1" fill="white" opacity="0.9"/>
  <circle cx="20" cy="13" r="1" fill="white" opacity="0.9"/>
  
  <!-- Hub连接点 -->
  <circle cx="26" cy="8" r="2" fill="url(#accent)"/>
  <circle cx="6" cy="26" r="2" fill="url(#accent)"/>
  
  <!-- 连接线 -->
  <line x1="16" y1="13" x2="24" y2="8" stroke="url(#accent)" stroke-width="1" opacity="0.6"/>
  <line x1="16" y1="13" x2="8" y2="24" stroke="url(#accent)" stroke-width="1" opacity="0.6"/>
</svg>