<svg xmlns="http://www.w3.org/2000/svg" viewBox="0 0 64 64" width="64" height="64">
  <defs>
    <!-- 深色背景渐变，类似ChatGPT -->
    <linearGradient id="bgGradient" x1="0%" y1="0%" x2="100%" y2="100%">
      <stop offset="0%" style="stop-color:#1a1a1a"/>
      <stop offset="100%" style="stop-color:#2d2d2d"/>
    </linearGradient>
    
    <!-- 明亮的绿色渐变，类似ChatGPT的品牌色 -->
    <linearGradient id="iconGradient" x1="0%" y1="0%" x2="100%" y2="100%">
      <stop offset="0%" style="stop-color:#10a37f"/>
      <stop offset="100%" style="stop-color:#1a7f64"/>
    </linearGradient>
    
    <!-- 辅助色渐变 -->
    <linearGradient id="accentGradient" x1="0%" y1="0%" x2="100%" y2="100%">
      <stop offset="0%" style="stop-color:#19c37d"/>
      <stop offset="100%" style="stop-color:#10a37f"/>
    </linearGradient>
  </defs>
  
  <!-- 圆角矩形背景，现代感 -->
  <rect x="4" y="4" width="56" height="56" rx="14" ry="14" fill="url(#bgGradient)"/>
  
  <!-- 主要图标：简化的聊天气泡组合，形成"C"字形状 -->
  <!-- 大聊天气泡 -->
  <path d="M16 20 C16 16, 19 13, 23 13 L41 13 C45 13, 48 16, 48 20 L48 28 C48 32, 45 35, 41 35 L26 35 L20 40 L20 35 C18 35, 16 32, 16 28 Z" 
        fill="url(#iconGradient)"/>
  
  <!-- 内部装饰：三个点表示对话 -->
  <circle cx="26" cy="24" r="2" fill="#ffffff" opacity="0.9"/>
  <circle cx="32" cy="24" r="2" fill="#ffffff" opacity="0.9"/>
  <circle cx="38" cy="24" r="2" fill="#ffffff" opacity="0.9"/>
  
  <!-- Hub连接概念：小圆点和连接线 -->
  <!-- 右上角小气泡 -->
  <circle cx="50" cy="16" r="4" fill="url(#accentGradient)"/>
  <circle cx="50" cy="16" r="1.5" fill="#ffffff" opacity="0.8"/>
  
  <!-- 左下角小气泡 -->
  <circle cx="14" cy="48" r="4" fill="url(#accentGradient)"/>
  <circle cx="14" cy="48" r="1.5" fill="#ffffff" opacity="0.8"/>
  
  <!-- 连接线，表示Hub的概念 -->
  <line x1="32" y1="24" x2="46" y2="16" stroke="url(#accentGradient)" stroke-width="2" opacity="0.6"/>
  <line x1="32" y1="24" x2="18" y2="44" stroke="url(#accentGradient)" stroke-width="2" opacity="0.6"/>
  
  <!-- 中心连接点 -->
  <circle cx="32" cy="24" r="1.5" fill="url(#accentGradient)"/>
</svg>